<svg width="95" height="30" viewBox="0 0 95 30" fill="none" xmlns="http://www.w3.org/2000/svg">
<path d="M21.2944 19.7285C20.3549 18.2253 19.2902 16.6282 18.0689 14.9059C16.8789 13.1836 15.6263 11.4612 14.3424 9.73889C13.0585 8.01655 11.7745 6.38816 10.5219 4.79108C9.23799 3.19401 8.07933 1.81613 6.95198 0.657471H2.69311H0V2.69296H1.15866C1.15866 2.69296 2.4739 3.03743 2.69311 4.19609V29.3422H7.82881V8.83075C8.98747 10.2086 10.2088 11.7744 11.4927 13.4967C12.7766 15.2191 14.0292 17.004 15.2818 18.8516C16.5344 20.6992 17.7244 22.5155 18.8831 24.3318C20.0418 26.1481 21.1065 27.8391 22.0459 29.4049H26.4927V0.657471H21.2944V19.7285Z" fill="white"/>
<path d="M35.2609 16.5343H47.0041V12.1815H35.2609V5.10423H48.4759V0.657471H30.0312V29.3735H49.4467V24.9268H35.2609V16.5343Z" fill="white"/>
<path d="M69.8331 15.8768C69.1128 15.1879 68.2047 14.5616 67.14 14.0605C66.0752 13.5595 64.854 13.0585 63.5074 12.5574C62.7245 12.2756 62.0356 11.9937 61.378 11.6806C60.7203 11.3674 60.1567 11.0543 59.6869 10.6785C59.2172 10.334 58.8414 9.92693 58.5596 9.4572C58.3091 8.98747 58.1525 8.45511 58.1525 7.82881C58.1525 6.76409 58.5596 5.9499 59.3425 5.38622C60.1253 4.79123 61.2214 4.50939 62.6306 4.50939C63.8205 4.50939 64.9792 4.63466 66.0752 4.91649C67.2026 5.19833 68.236 5.60543 69.1755 6.10647L70.8038 1.87891C69.9897 1.40919 68.8936 0.970772 67.5157 0.563674C66.1066 0.187891 64.5095 0 62.7245 0C59.6243 0 57.1817 0.751566 55.3967 2.22338C53.6118 3.6952 52.7036 5.73069 52.7036 8.32985C52.7036 9.58246 52.9228 10.6472 53.3299 11.524C53.7684 12.4008 54.332 13.1524 55.021 13.81C55.7412 14.4363 56.5554 14.9687 57.4636 15.4071C58.403 15.8455 59.3425 16.2213 60.3446 16.5971C61.3466 16.9415 62.2235 17.2547 63.0063 17.5992C63.7892 17.9436 64.4469 18.3194 64.9792 18.7265C65.5116 19.1336 65.9187 19.572 66.2318 20.0731C66.5137 20.5741 66.6702 21.1691 66.6702 21.858C66.6702 23.0167 66.2318 23.9248 65.3863 24.5511C64.5408 25.1775 63.1629 25.4906 61.284 25.4906C59.499 25.4906 57.9646 25.2714 56.6807 24.8643C55.3967 24.4572 54.3947 24.0501 53.6431 23.6117L52.1086 27.8706C52.4531 28.0585 52.8915 28.2777 53.4239 28.5282C53.9876 28.7474 54.6452 28.9979 55.3967 29.2171C56.1483 29.4363 57.0251 29.6242 57.9959 29.7808C58.9667 29.9374 60.0627 30 61.2527 30C64.7913 30 67.4844 29.2797 69.3007 27.8706C71.1483 26.4614 72.0565 24.4259 72.0565 21.858C72.0565 20.5115 71.8686 19.3528 71.4615 18.4134C71.117 17.4113 70.5533 16.5971 69.8331 15.8768Z" fill="white"/>
<path d="M93.8519 18.382C93.4761 17.4426 92.9124 16.5971 92.1609 15.9081C91.4406 15.2192 90.5325 14.5929 89.4678 14.0919C88.403 13.5908 87.1818 13.0898 85.8352 12.5887C85.0523 12.3069 84.3634 12.0251 83.7058 11.7119C83.0481 11.3987 82.4845 11.0856 82.0147 10.7098C81.545 10.3653 81.1692 9.95825 80.8874 9.48852C80.6369 9.01879 80.4803 8.48643 80.4803 7.86013C80.4803 6.79541 80.8874 5.98121 81.6703 5.41754C82.4531 4.82255 83.5492 4.54071 84.9584 4.54071C86.1483 4.54071 87.307 4.66597 88.403 4.94781C89.5304 5.22965 90.5638 5.63674 91.5033 6.13779L93.1316 1.91023C92.3174 1.4405 91.2214 1.00209 89.8435 0.59499C88.4344 0.187891 86.8686 0 85.0523 0C81.9521 0 79.5095 0.751566 77.7246 2.22338C75.9396 3.6952 75.0314 5.73069 75.0314 8.32985C75.0314 9.58246 75.2507 10.6472 75.6578 11.524C76.0962 12.4008 76.6598 13.1524 77.3488 13.81C78.069 14.4363 78.8832 14.9687 79.7914 15.4071C80.7308 15.8455 81.6703 16.2213 82.6724 16.5971C83.6744 16.9415 84.5513 17.2547 85.3342 17.5992C86.117 17.9436 86.7746 18.3194 87.307 18.7265C87.8394 19.1336 88.2465 19.572 88.5596 20.0731C88.8415 20.5741 88.998 21.1691 88.998 21.858C88.998 23.0167 88.5596 23.9248 87.7141 24.5511C86.8686 25.1775 85.4907 25.4906 83.6118 25.4906C81.8268 25.4906 80.2924 25.2714 79.0085 24.8643C77.7246 24.4572 76.7225 24.0501 75.9709 23.6117L74.4678 27.8706C74.8122 28.0585 75.2507 28.2777 75.783 28.5282C76.3467 28.7474 77.0043 28.9979 77.7559 29.2171C78.5074 29.4363 79.3843 29.6242 80.355 29.7808C81.3258 29.9374 82.4218 30 83.6118 30C87.1504 30 89.8435 29.2797 91.6598 27.8706C93.5074 26.4614 94.4156 24.4259 94.4156 21.858C94.4469 20.4802 94.259 19.3215 93.8519 18.382Z" fill="white"/>
</svg>
